<svg xmlns="http://www.w3.org/2000/svg" xmlns:xlink="http://www.w3.org/1999/xlink" width="1000" zoomAndPan="magnify" viewBox="0 0 750 269.999989" height="360" preserveAspectRatio="xMidYMid meet" version="1.2"><defs><clipPath id="40995bbdb9"><path d="M 6 14 L 228 14 L 228 244 L 6 244 Z M 6 14 "/></clipPath><clipPath id="aae9d52783"><path d="M 262.921875 58.832031 L 178.398438 277.03125 L -34.90625 194.40625 L 49.617188 -23.792969 Z M 262.921875 58.832031 "/></clipPath><clipPath id="fc011cb040"><path d="M 262.921875 58.832031 L 178.398438 277.03125 L -34.90625 194.40625 L 49.617188 -23.792969 Z M 262.921875 58.832031 "/></clipPath><clipPath id="868494a775"><path d="M 156 66 L 210 66 L 210 120 L 156 120 Z M 156 66 "/></clipPath><clipPath id="ae7a4a6fae"><path d="M 172.242188 53.261719 L 219.535156 79.738281 L 194.339844 124.746094 L 147.046875 98.269531 Z M 172.242188 53.261719 "/></clipPath><clipPath id="c2ec5c835a"><path d="M 195.851562 66.480469 L 191.804688 86.792969 L 209.839844 96.890625 L 189.300781 99.347656 L 185.25 119.65625 L 176.605469 100.863281 L 156.066406 103.320312 L 171.261719 89.25 L 162.617188 70.453125 L 180.65625 80.550781 Z M 195.851562 66.480469 "/></clipPath></defs><g id="cbd0559e73"><rect x="0" width="750" y="0" height="269.999989" style="fill:#ffffff;fill-opacity:1;stroke:none;"/><rect x="0" width="750" y="0" height="269.999989" style="fill:#ffffff;fill-opacity:1;stroke:none;"/><g style="fill:#5d9cec;fill-opacity:1;"><g transform="translate(235.856919, 134.363802)"><path style="stroke:none" d="M 22.453125 -48.3125 L 22.453125 0 L 8.140625 0 L 8.140625 -70.046875 L 24.6875 -70.046875 L 55.109375 -24.328125 L 55.109375 -70.046875 L 69.421875 -70.046875 L 69.421875 0 L 54.65625 0 Z M 22.453125 -48.3125 "/></g></g><g style="fill:#5d9cec;fill-opacity:1;"><g transform="translate(317.961928, 134.363802)"><path style="stroke:none" d="M 3.84375 -34.96875 C 3.84375 -39.976562 4.796875 -44.675781 6.703125 -49.0625 C 8.617188 -53.445312 11.242188 -57.289062 14.578125 -60.59375 C 17.921875 -63.90625 21.8125 -66.484375 26.25 -68.328125 C 30.695312 -70.179688 35.425781 -71.109375 40.4375 -71.109375 C 45.445312 -71.109375 50.140625 -70.195312 54.515625 -68.375 C 58.898438 -66.5625 62.75 -64.03125 66.0625 -60.78125 C 69.375 -57.53125 71.953125 -53.726562 73.796875 -49.375 C 75.648438 -45.019531 76.578125 -40.335938 76.578125 -35.328125 C 76.578125 -30.265625 75.632812 -25.523438 73.75 -21.109375 C 71.875 -16.691406 69.25 -12.8125 65.875 -9.46875 C 62.507812 -6.132812 58.617188 -3.539062 54.203125 -1.6875 C 49.796875 0.15625 45.085938 1.078125 40.078125 1.078125 C 35.066406 1.078125 30.367188 0.15625 25.984375 -1.6875 C 21.597656 -3.539062 17.75 -6.109375 14.4375 -9.390625 C 11.132812 -12.671875 8.539062 -16.488281 6.65625 -20.84375 C 4.78125 -25.195312 3.84375 -29.90625 3.84375 -34.96875 Z M 18.703125 -35.0625 C 18.703125 -31.070312 19.65625 -27.390625 21.5625 -24.015625 C 23.46875 -20.648438 26.0625 -17.96875 29.34375 -15.96875 C 32.625 -13.96875 36.257812 -12.96875 40.25 -12.96875 C 44.3125 -12.96875 47.96875 -13.96875 51.21875 -15.96875 C 54.46875 -17.96875 57.046875 -20.648438 58.953125 -24.015625 C 60.859375 -27.390625 61.8125 -31.070312 61.8125 -35.0625 C 61.8125 -39.125 60.859375 -42.804688 58.953125 -46.109375 C 57.046875 -49.421875 54.46875 -52.078125 51.21875 -54.078125 C 47.96875 -56.078125 44.3125 -57.078125 40.25 -57.078125 C 36.257812 -57.078125 32.625 -56.078125 29.34375 -54.078125 C 26.0625 -52.078125 23.46875 -49.421875 21.5625 -46.109375 C 19.65625 -42.804688 18.703125 -39.125 18.703125 -35.0625 Z M 18.703125 -35.0625 "/></g></g><g style="fill:#5d9cec;fill-opacity:1;"><g transform="translate(402.839514, 134.363802)"><path style="stroke:none" d="M 1.34375 -70.046875 L 17 -70.046875 L 35.15625 -16.8125 L 53.40625 -70.046875 L 68.796875 -70.046875 L 43.390625 0 L 26.65625 0 Z M 1.34375 -70.046875 "/></g></g><g style="fill:#5d9cec;fill-opacity:1;"><g transform="translate(477.431738, 134.363802)"><path style="stroke:none" d="M 14.484375 0 L -0.09375 0 L 26.65625 -70.046875 L 44.09375 -70.046875 L 70.9375 0 L 56 0 L 50.71875 -14.140625 L 19.6875 -14.140625 Z M 35.25 -56 L 24.6875 -27.546875 L 45.796875 -27.546875 Z M 35.25 -56 "/></g></g><g style="fill:#000000;fill-opacity:1;"><g transform="translate(235.856919, 222.378318)"><path style="stroke:none" d="M 62.625 -19.328125 C 62.625 -15.742188 61.90625 -12.726562 60.46875 -10.28125 C 59.039062 -7.84375 57.132812 -5.863281 54.75 -4.34375 C 52.363281 -2.820312 49.691406 -1.71875 46.734375 -1.03125 C 43.785156 -0.34375 40.757812 0 37.65625 0 L 8.140625 0 L 8.140625 -70.046875 L 37.21875 -70.046875 C 40.96875 -70.046875 44.554688 -69.375 47.984375 -68.03125 C 51.421875 -66.6875 54.210938 -64.640625 56.359375 -61.890625 C 58.503906 -59.148438 59.578125 -55.695312 59.578125 -51.53125 C 59.578125 -48.070312 58.695312 -45.101562 56.9375 -42.625 C 55.175781 -40.144531 52.773438 -38.132812 49.734375 -36.59375 L 49.734375 -36.40625 C 53.910156 -34.851562 57.101562 -32.78125 59.3125 -30.1875 C 61.519531 -27.59375 62.625 -23.972656 62.625 -19.328125 Z M 45.359375 -49.28125 C 45.359375 -51.25 44.847656 -52.769531 43.828125 -53.84375 C 42.816406 -54.925781 41.535156 -55.675781 39.984375 -56.09375 C 38.429688 -56.507812 36.851562 -56.71875 35.25 -56.71875 L 22.28125 -56.71875 L 22.28125 -41.59375 L 34.265625 -41.59375 C 35.992188 -41.59375 37.707031 -41.785156 39.40625 -42.171875 C 41.101562 -42.566406 42.519531 -43.328125 43.65625 -44.453125 C 44.789062 -45.585938 45.359375 -47.195312 45.359375 -49.28125 Z M 48.484375 -21.203125 C 48.484375 -23.410156 47.898438 -25.0625 46.734375 -26.15625 C 45.578125 -27.257812 44.117188 -28.019531 42.359375 -28.4375 C 40.597656 -28.863281 38.820312 -29.078125 37.03125 -29.078125 L 22.28125 -29.078125 L 22.28125 -13.421875 L 37.484375 -13.421875 C 39.210938 -13.421875 40.925781 -13.628906 42.625 -14.046875 C 44.320312 -14.460938 45.722656 -15.234375 46.828125 -16.359375 C 47.929688 -17.492188 48.484375 -19.109375 48.484375 -21.203125 Z M 48.484375 -21.203125 "/></g></g><g style="fill:#000000;fill-opacity:1;"><g transform="translate(306.871617, 222.378318)"><path style="stroke:none" d="M 63.6875 -28.265625 C 63.6875 -22.304688 62.640625 -17.132812 60.546875 -12.75 C 58.460938 -8.363281 55.332031 -4.976562 51.15625 -2.59375 C 46.988281 -0.207031 41.742188 0.984375 35.421875 0.984375 C 28.984375 0.984375 23.691406 -0.234375 19.546875 -2.671875 C 15.398438 -5.117188 12.34375 -8.503906 10.375 -12.828125 C 8.40625 -17.160156 7.421875 -22.128906 7.421875 -27.734375 L 7.421875 -70.046875 L 22 -70.046875 L 21.921875 -28.09375 C 21.921875 -22.90625 23.226562 -19.085938 25.84375 -16.640625 C 28.46875 -14.191406 31.691406 -12.96875 35.515625 -12.96875 C 39.984375 -12.96875 43.410156 -14.320312 45.796875 -17.03125 C 48.179688 -19.75 49.375 -23.316406 49.375 -27.734375 L 49.375 -70.046875 L 63.6875 -70.046875 Z M 63.6875 -28.265625 "/></g></g><g style="fill:#000000;fill-opacity:1;"><g transform="translate(382.447644, 222.378318)"><path style="stroke:none" d="M 18.96875 -50.90625 C 18.96875 -48.695312 19.90625 -46.976562 21.78125 -45.75 C 23.65625 -44.53125 26.472656 -43.382812 30.234375 -42.3125 C 35.421875 -40.820312 39.847656 -39.148438 43.515625 -37.296875 C 47.179688 -35.453125 49.96875 -33.1875 51.875 -30.5 C 53.789062 -27.820312 54.75 -24.515625 54.75 -20.578125 C 54.75 -16.460938 53.765625 -12.78125 51.796875 -9.53125 C 49.828125 -6.28125 46.929688 -3.695312 43.109375 -1.78125 C 39.296875 0.125 34.617188 1.078125 29.078125 1.078125 C 22.453125 1.078125 16.753906 -0.410156 11.984375 -3.390625 C 7.210938 -6.378906 3.785156 -10.378906 1.703125 -15.390625 L 14.21875 -21.828125 C 15.59375 -18.785156 17.601562 -16.398438 20.25 -14.671875 C 22.90625 -12.941406 25.992188 -12.078125 29.515625 -12.078125 C 32.679688 -12.078125 35.25 -12.773438 37.21875 -14.171875 C 39.1875 -15.578125 40.171875 -17.351562 40.171875 -19.5 C 40.171875 -20.875 39.78125 -22.050781 39 -23.03125 C 38.226562 -24.019531 36.875 -24.929688 34.9375 -25.765625 C 33 -26.597656 30.328125 -27.519531 26.921875 -28.53125 C 23.171875 -29.664062 19.863281 -30.90625 17 -32.25 C 14.132812 -33.59375 11.75 -35.1875 9.84375 -37.03125 C 8.226562 -38.582031 6.925781 -40.460938 5.9375 -42.671875 C 4.957031 -44.878906 4.46875 -47.320312 4.46875 -50 C 4.46875 -54.175781 5.585938 -57.84375 7.828125 -61 C 10.066406 -64.164062 13.035156 -66.640625 16.734375 -68.421875 C 20.429688 -70.210938 24.484375 -71.109375 28.890625 -71.109375 C 34.734375 -71.109375 39.785156 -69.78125 44.046875 -67.125 C 48.316406 -64.476562 51.46875 -60.769531 53.5 -56 L 41.5 -49.46875 C 40.375 -52.269531 38.628906 -54.398438 36.265625 -55.859375 C 33.910156 -57.328125 31.242188 -58.0625 28.265625 -58.0625 C 25.347656 -58.0625 23.066406 -57.390625 21.421875 -56.046875 C 19.785156 -54.703125 18.96875 -52.988281 18.96875 -50.90625 Z M 18.96875 -50.90625 "/></g></g><g style="fill:#000000;fill-opacity:1;"><g transform="translate(445.234047, 222.378318)"><path style="stroke:none" d="M 22.625 -70.046875 L 22.625 0 L 8.140625 0 L 8.140625 -70.046875 Z M 22.625 -70.046875 "/></g></g><g style="fill:#000000;fill-opacity:1;"><g transform="translate(480.562965, 222.378318)"><path style="stroke:none" d="M 22.453125 -48.3125 L 22.453125 0 L 8.140625 0 L 8.140625 -70.046875 L 24.6875 -70.046875 L 55.109375 -24.328125 L 55.109375 -70.046875 L 69.421875 -70.046875 L 69.421875 0 L 54.65625 0 Z M 22.453125 -48.3125 "/></g></g><g style="fill:#000000;fill-opacity:1;"><g transform="translate(562.667974, 222.378318)"><path style="stroke:none" d="M 8.140625 -70.046875 L 54.03125 -70.046875 L 54.03125 -56.4375 L 22.453125 -56.4375 L 22.453125 -42.21875 L 50.71875 -42.21875 L 50.71875 -28.625 L 22.453125 -28.625 L 22.453125 -13.5 L 54.203125 -13.5 L 54.203125 0 L 8.140625 0 Z M 8.140625 -70.046875 "/></g></g><g style="fill:#000000;fill-opacity:1;"><g transform="translate(626.43818, 222.378318)"><path style="stroke:none" d="M 18.96875 -50.90625 C 18.96875 -48.695312 19.90625 -46.976562 21.78125 -45.75 C 23.65625 -44.53125 26.472656 -43.382812 30.234375 -42.3125 C 35.421875 -40.820312 39.847656 -39.148438 43.515625 -37.296875 C 47.179688 -35.453125 49.96875 -33.1875 51.875 -30.5 C 53.789062 -27.820312 54.75 -24.515625 54.75 -20.578125 C 54.75 -16.460938 53.765625 -12.78125 51.796875 -9.53125 C 49.828125 -6.28125 46.929688 -3.695312 43.109375 -1.78125 C 39.296875 0.125 34.617188 1.078125 29.078125 1.078125 C 22.453125 1.078125 16.753906 -0.410156 11.984375 -3.390625 C 7.210938 -6.378906 3.785156 -10.378906 1.703125 -15.390625 L 14.21875 -21.828125 C 15.59375 -18.785156 17.601562 -16.398438 20.25 -14.671875 C 22.90625 -12.941406 25.992188 -12.078125 29.515625 -12.078125 C 32.679688 -12.078125 35.25 -12.773438 37.21875 -14.171875 C 39.1875 -15.578125 40.171875 -17.351562 40.171875 -19.5 C 40.171875 -20.875 39.78125 -22.050781 39 -23.03125 C 38.226562 -24.019531 36.875 -24.929688 34.9375 -25.765625 C 33 -26.597656 30.328125 -27.519531 26.921875 -28.53125 C 23.171875 -29.664062 19.863281 -30.90625 17 -32.25 C 14.132812 -33.59375 11.75 -35.1875 9.84375 -37.03125 C 8.226562 -38.582031 6.925781 -40.460938 5.9375 -42.671875 C 4.957031 -44.878906 4.46875 -47.320312 4.46875 -50 C 4.46875 -54.175781 5.585938 -57.84375 7.828125 -61 C 10.066406 -64.164062 13.035156 -66.640625 16.734375 -68.421875 C 20.429688 -70.210938 24.484375 -71.109375 28.890625 -71.109375 C 34.734375 -71.109375 39.785156 -69.78125 44.046875 -67.125 C 48.316406 -64.476562 51.46875 -60.769531 53.5 -56 L 41.5 -49.46875 C 40.375 -52.269531 38.628906 -54.398438 36.265625 -55.859375 C 33.910156 -57.328125 31.242188 -58.0625 28.265625 -58.0625 C 25.347656 -58.0625 23.066406 -57.390625 21.421875 -56.046875 C 19.785156 -54.703125 18.96875 -52.988281 18.96875 -50.90625 Z M 18.96875 -50.90625 "/></g></g><g style="fill:#000000;fill-opacity:1;"><g transform="translate(689.224583, 222.378318)"><path style="stroke:none" d="M 18.96875 -50.90625 C 18.96875 -48.695312 19.90625 -46.976562 21.78125 -45.75 C 23.65625 -44.53125 26.472656 -43.382812 30.234375 -42.3125 C 35.421875 -40.820312 39.847656 -39.148438 43.515625 -37.296875 C 47.179688 -35.453125 49.96875 -33.1875 51.875 -30.5 C 53.789062 -27.820312 54.75 -24.515625 54.75 -20.578125 C 54.75 -16.460938 53.765625 -12.78125 51.796875 -9.53125 C 49.828125 -6.28125 46.929688 -3.695312 43.109375 -1.78125 C 39.296875 0.125 34.617188 1.078125 29.078125 1.078125 C 22.453125 1.078125 16.753906 -0.410156 11.984375 -3.390625 C 7.210938 -6.378906 3.785156 -10.378906 1.703125 -15.390625 L 14.21875 -21.828125 C 15.59375 -18.785156 17.601562 -16.398438 20.25 -14.671875 C 22.90625 -12.941406 25.992188 -12.078125 29.515625 -12.078125 C 32.679688 -12.078125 35.25 -12.773438 37.21875 -14.171875 C 39.1875 -15.578125 40.171875 -17.351562 40.171875 -19.5 C 40.171875 -20.875 39.78125 -22.050781 39 -23.03125 C 38.226562 -24.019531 36.875 -24.929688 34.9375 -25.765625 C 33 -26.597656 30.328125 -27.519531 26.921875 -28.53125 C 23.171875 -29.664062 19.863281 -30.90625 17 -32.25 C 14.132812 -33.59375 11.75 -35.1875 9.84375 -37.03125 C 8.226562 -38.582031 6.925781 -40.460938 5.9375 -42.671875 C 4.957031 -44.878906 4.46875 -47.320312 4.46875 -50 C 4.46875 -54.175781 5.585938 -57.84375 7.828125 -61 C 10.066406 -64.164062 13.035156 -66.640625 16.734375 -68.421875 C 20.429688 -70.210938 24.484375 -71.109375 28.890625 -71.109375 C 34.734375 -71.109375 39.785156 -69.78125 44.046875 -67.125 C 48.316406 -64.476562 51.46875 -60.769531 53.5 -56 L 41.5 -49.46875 C 40.375 -52.269531 38.628906 -54.398438 36.265625 -55.859375 C 33.910156 -57.328125 31.242188 -58.0625 28.265625 -58.0625 C 25.347656 -58.0625 23.066406 -57.390625 21.421875 -56.046875 C 19.785156 -54.703125 18.96875 -52.988281 18.96875 -50.90625 Z M 18.96875 -50.90625 "/></g></g><g clip-rule="nonzero" clip-path="url(#40995bbdb9)"><g clip-rule="nonzero" clip-path="url(#aae9d52783)"><g clip-rule="nonzero" clip-path="url(#fc011cb040)"><path style=" stroke:none;fill-rule:nonzero;fill:#000000;fill-opacity:1;" d="M 6.511719 87.785156 C 20.273438 52.253906 50.273438 26.066406 88.832031 17.265625 C 103.050781 14.019531 117.816406 13.679688 132.167969 16.261719 C 171.097656 23.265625 202.28125 48.039062 217.671875 82.898438 C 230.007812 110.828125 230.722656 141.890625 219.695312 170.363281 C 208.664062 198.839844 187.210938 221.308594 159.28125 233.644531 C 131.347656 245.980469 100.289062 246.695312 71.816406 235.667969 L 74.859375 227.8125 C 131.957031 249.929688 196.769531 219 214.632812 159.15625 C 229.4375 109.570312 205.878906 56.21875 159.25 33.761719 C 102.988281 6.664062 36.480469 33.734375 14.363281 90.828125 Z M 6.511719 87.785156 "/></g></g></g><g style="fill:#000000;fill-opacity:1;"><g transform="translate(22.105554, 243.955032)"><path style="stroke:none" d="M 145.484375 -135.15625 C 146.898438 -136.375 148.0625 -136.523438 148.96875 -135.609375 C 149.882812 -134.703125 149.632812 -133.640625 148.21875 -132.421875 C 140.320312 -124.929688 131.867188 -117.035156 122.859375 -108.734375 C 113.847656 -100.429688 104.6875 -93.75 95.375 -88.6875 C 87.070312 -84.226562 80.234375 -81.742188 74.859375 -81.234375 C 69.492188 -80.734375 65.242188 -81.597656 62.109375 -83.828125 C 58.972656 -86.054688 56.695312 -89.09375 55.28125 -92.9375 C 53.863281 -96.78125 53 -100.726562 52.6875 -104.78125 C 52.382812 -108.832031 52.234375 -112.375 52.234375 -115.40625 C 52.640625 -124.113281 51.523438 -129.679688 48.890625 -132.109375 C 46.265625 -134.546875 42.875 -134.597656 38.71875 -132.265625 C 34.570312 -129.941406 30.171875 -125.84375 25.515625 -119.96875 C 21.660156 -115.101562 17.910156 -109.785156 14.265625 -104.015625 C 10.628906 -98.253906 7.238281 -92.738281 4.09375 -87.46875 C 0.957031 -82.207031 -1.820312 -77.851562 -4.25 -74.40625 C -8.300781 -69.144531 -11.796875 -66.71875 -14.734375 -67.125 C -17.671875 -67.53125 -19.335938 -69.65625 -19.734375 -73.5 C -20.140625 -78.15625 -19.429688 -84.175781 -17.609375 -91.5625 C -15.785156 -98.957031 -13.253906 -106.703125 -10.015625 -114.796875 C -6.773438 -122.898438 -3.4375 -130.09375 0 -136.375 C 1.007812 -138.394531 2.375 -139.609375 4.09375 -140.015625 C 5.820312 -140.421875 7.238281 -140.164062 8.34375 -139.25 C 9.457031 -138.34375 9.507812 -136.875 8.5 -134.84375 C 6.675781 -131.40625 4.394531 -126.695312 1.65625 -120.71875 C -1.070312 -114.75 -3.648438 -108.578125 -6.078125 -102.203125 C -8.503906 -95.828125 -10.375 -90.054688 -11.6875 -84.890625 C -13.007812 -79.722656 -13.164062 -76.128906 -12.15625 -74.109375 C -9.925781 -75.929688 -7.238281 -79.625 -4.09375 -85.1875 C -0.957031 -90.757812 2.628906 -97.035156 6.671875 -104.015625 C 10.722656 -111.003906 15.078125 -117.535156 19.734375 -123.609375 C 26.015625 -131.710938 32.546875 -137.332031 39.328125 -140.46875 C 46.109375 -143.601562 51.828125 -143.550781 56.484375 -140.3125 C 61.148438 -137.070312 63.175781 -129.882812 62.5625 -118.75 C 62.363281 -115.101562 62.363281 -111.050781 62.5625 -106.59375 C 62.769531 -102.144531 63.785156 -98.25 65.609375 -94.90625 C 67.429688 -91.570312 70.566406 -89.648438 75.015625 -89.140625 C 79.472656 -88.628906 85.75 -90.503906 93.84375 -94.765625 C 101.738281 -98.804688 109.988281 -104.519531 118.59375 -111.90625 C 127.207031 -119.300781 136.171875 -127.050781 145.484375 -135.15625 Z M 145.484375 -135.15625 "/></g></g><g clip-rule="nonzero" clip-path="url(#868494a775)"><g clip-rule="nonzero" clip-path="url(#ae7a4a6fae)"><g clip-rule="nonzero" clip-path="url(#c2ec5c835a)"><path style=" stroke:none;fill-rule:nonzero;fill:#5d9cec;fill-opacity:1;" d="M 172.242188 53.261719 L 219.535156 79.738281 L 194.339844 124.746094 L 147.046875 98.269531 Z M 172.242188 53.261719 "/></g></g></g></g></svg>